<svg width="165" height="138" viewBox="0 0 165 138" fill="none" xmlns="http://www.w3.org/2000/svg">
  <g filter="url(#buy-filter0_d)">
    <path d="M87.4119 64.4163H129.162C134.423 64.4163 138.666 68.6549 138.666 73.9106V109.006C138.666 114.261 142.908 118.5 148 118.5H106.25C100.989 118.5 96.7462 114.261 96.7462 109.006V73.7411C96.9159 68.4853 92.8428 64.0773 87.7513 63.9077C82.4902 63.7382 78.0776 67.8072 77.9079 72.8934C77.9079 73.2325 77.9079 73.402 77.9079 73.7411V92.7297C77.9079 97.9855 73.665 102.224 68.4039 102.224C63.1428 102.224 58.8999 97.9855 58.8999 92.7297V26.1L65.0096 31.5253L71.1193 26.1L77.229 31.5253L83.5085 26.1L89.6182 31.5253L95.7279 26.1L102.007 31.5253L108.456 26.1V64.4163" fill="white"/>
    <path d="M87.4119 64.4163H129.162C134.423 64.4163 138.666 68.6549 138.666 73.9106V109.006C138.666 114.261 142.908 118.5 148 118.5H106.25C100.989 118.5 96.7462 114.261 96.7462 109.006V73.7411C96.9159 68.4853 92.8428 64.0773 87.7513 63.9077C82.4902 63.7382 78.0776 67.8072 77.9079 72.8934C77.9079 73.2325 77.9079 73.402 77.9079 73.7411V92.7297C77.9079 97.9855 73.665 102.224 68.4039 102.224C63.1428 102.224 58.8999 97.9855 58.8999 92.7297V26.1L65.0096 31.5253L71.1193 26.1L77.229 31.5253L83.5085 26.1L89.6182 31.5253L95.7279 26.1L102.007 31.5253L108.456 26.1V64.4163" stroke="#FB9A3B" stroke-width="2" stroke-linejoin="round"/>
    <path d="M93.5498 73.95V83.85H103.45V73.95H93.5498ZM100.645 81.045H96.3548V76.755H100.645V81.045Z" fill="#C5471E"/>
    <path d="M93.5498 98.7V108.6H103.45V98.7H93.5498ZM100.645 105.795H96.3548V101.505H100.645V105.795Z" fill="#C5471E"/>
    <path d="M118.3 73.95V83.85H128.2V73.95H118.3ZM125.395 81.045H121.105V76.755H125.395V81.045Z" fill="#FB9A3B"/>
    <path d="M125.395 87.15V95.687H118.3V98.7H128.2V87.15H125.395Z" fill="#FB9A3B"/>
    <path d="M118.3 100.35V108.6H121.105V103.612H125.395V108.6H128.2V100.35H118.3Z" fill="#FB9A3B"/>
    <path d="M106.75 73.95V76.755H112.144V83.85H115V73.95H106.75Z" fill="#FB9A3B"/>
    <path d="M112.621 87.15V92.8035H106.75V101.45H112.621V108.6H115.729V98.6233H109.685V95.6302H115.729V89.9768H118.665V92.8035H121.6V87.15H112.621Z" fill="#FB9A3B"/>
    <path d="M110.05 103.65H106.75V108.6H110.05V103.65Z" fill="#C5471E"/>
    <path d="M103.45 92.1H100.15V95.4H103.45V92.1Z" fill="#C5471E"/>
    <path d="M107.097 78.9V86.5421H93.5498V95.4H96.5024V89.4948H110.05V78.9H107.097Z" fill="#C5471E"/>
    <path d="M35.7998 70.7C35.7998 67.9386 38.0384 65.7 40.7998 65.7H55.5998V102H35.7998V70.7Z" fill="#D6DEE2"/>
    <path d="M45.9922 64.4163H87.7419C93.003 64.4163 97.2459 68.6549 97.2459 73.9106V109.006C97.2459 114.261 101.489 118.5 106.75 118.5H64.8305C59.5693 118.5 55.4962 114.261 55.4962 109.006V73.7411C55.3265 68.4853 51.2533 64.4163 45.9922 64.4163C40.731 64.4163 36.4882 68.6549 36.4882 73.7411V92.7297C36.4882 97.9855 32.2453 102.224 26.9842 102.224C21.8928 102.224 17.6499 97.9855 17.6499 92.7297V26.1L23.7596 31.5253L29.8693 26.1L35.979 31.5253L42.0888 26.1L48.1985 31.5253L54.3082 26.1L60.4179 31.5253L66.5276 26.1V64.4163" fill="white"/>
    <path d="M45.9922 64.4163H87.7419C93.003 64.4163 97.2459 68.6549 97.2459 73.9106V109.006C97.2459 114.261 101.489 118.5 106.75 118.5H64.8305C59.5693 118.5 55.4962 114.261 55.4962 109.006V73.7411C55.3265 68.4853 51.2533 64.4163 45.9922 64.4163ZM45.9922 64.4163C40.731 64.4163 36.4882 68.6549 36.4882 73.7411V92.7297C36.4882 97.9855 32.2453 102.224 26.9842 102.224C21.8928 102.224 17.6499 97.9855 17.6499 92.7297V26.1L23.7596 31.5253L29.8693 26.1L35.979 31.5253L42.0888 26.1L48.1985 31.5253L54.3082 26.1L60.4179 31.5253L66.5276 26.1V64.4163" stroke="#FB9A3B" stroke-width="2" stroke-linejoin="round"/>
    <path d="M27.5498 102H55.5998" stroke="#FB9A3B" stroke-width="2" stroke-linejoin="round"/>
    <path d="M34.1499 45.9H58.8999" stroke="#FB9A3B" stroke-width="2" stroke-linejoin="round"/>
    <path d="M34.1499 57.45H58.8999" stroke="#FB9A3B" stroke-width="2" stroke-linejoin="round"/>
    <path d="M24.25 45.9H30.85" stroke="#FB9A3B" stroke-width="2" stroke-linejoin="round"/>
    <path d="M24.25 57.45H30.85" stroke="#FB9A3B" stroke-width="2" stroke-linejoin="round"/>
    <path d="M24.25 67.35H30.85" stroke="#FB9A3B" stroke-width="2" stroke-linejoin="round"/>
    <path d="M68.7998 102H96.8498" stroke="#C5471E" stroke-width="2" stroke-linejoin="round"/>
    <path d="M75.3999 45.9H100.15" stroke="#C5471E" stroke-width="2" stroke-linejoin="round"/>
    <path d="M75.3999 57.45H100.15" stroke="#C5471E" stroke-width="2" stroke-linejoin="round"/>
    <path d="M63.8499 45.9H72.0999" stroke="#C5471E" stroke-width="2" stroke-linejoin="round"/>
    <path d="M63.8499 57.45H72.0999" stroke="#C5471E" stroke-width="2" stroke-linejoin="round"/>
    <path d="M63.8499 67.35H72.0999" stroke="#C5471E" stroke-width="2" stroke-linejoin="round"/>
    <path d="M61.4957 17.85H104.154C107.449 17.85 110.05 20.429 110.05 23.6957V114.304C110.05 117.571 107.449 120.15 104.154 120.15H61.4957C58.201 120.15 55.5999 117.571 55.5999 114.304V23.6957C55.5999 20.429 58.201 17.85 61.4957 17.85Z" fill="#F4BB52"/>
    <path d="M61.4957 17.85H104.154C107.449 17.85 110.05 20.429 110.05 23.6957V114.304C110.05 117.571 107.449 120.15 104.154 120.15H61.4957C58.201 120.15 55.5999 117.571 55.5999 114.304V23.6957C55.5999 20.429 58.201 17.85 61.4957 17.85Z" stroke="#C5471E" stroke-width="3" stroke-linejoin="round"/>
    <path d="M101.8 17.85H96.8712C95.5115 17.85 94.4918 19.005 94.6618 20.325C94.6618 21.645 93.812 22.8 92.4523 22.8H71.5476C70.1879 22.8 69.1682 21.645 69.3381 20.325C69.3381 19.005 68.3184 18.015 67.1287 17.85H62.2" fill="#C5471E"/>
    <path d="M101.8 17.85H96.8712C95.5115 17.85 94.4918 19.005 94.6618 20.325C94.6618 21.645 93.812 22.8 92.4523 22.8H71.5476C70.1879 22.8 69.1682 21.645 69.3381 20.325C69.3381 19.005 68.3184 18.015 67.1287 17.85H62.2" stroke="#C5471E" stroke-width="2" stroke-linejoin="round"/>
    <path d="M65.5 50.85V60.75H75.4V50.85H65.5ZM72.76 57.945H68.47V53.655H72.76V57.945Z" fill="#C5471E"/>
    <path d="M65.5 75.6V85.5H75.4V75.6H65.5ZM72.76 82.695H68.47V78.405H72.76V82.695Z" fill="#C5471E"/>
    <path d="M90.25 50.85V60.75H100.15V50.85H90.25ZM97.345 57.945H93.055V53.655H97.345V57.945Z" fill="#C5471E"/>
    <path d="M97.345 64.05V72.7543H90.25V75.6H100.15V64.05H97.345Z" fill="#C5471E"/>
    <path d="M90.25 78.9V85.5H93.055V81.6H97.345V85.5H100.15V78.9H90.25Z" fill="#C5471E"/>
    <path d="M78.7 50.85V53.655H84.2528V60.75H86.95V50.85H78.7Z" fill="#C5471E"/>
    <path d="M84.7436 64.05V69.825H78.7V78.24H84.7436V85.5H87.679V75.435H81.6354V72.63H87.679V66.855H90.6145V69.825H93.5499V64.05H84.7436Z" fill="#C5471E"/>
    <path d="M80.3499 80.55H78.7V85.5H80.3499V80.55Z" fill="#C5471E"/>
    <path d="M75.3999 69H70.45V72.3H75.3999V69Z" fill="#C5471E"/>
    <path d="M77.6926 55.8V63.2684H65.5V72.3H68.3137V66.2211H80.35V55.8H77.6926Z" fill="#C5471E"/>
    <path d="M72.0999 111.9H93.5498" stroke="#C5471E" stroke-width="2" stroke-linejoin="round"/>
  </g>
  <defs>
    <filter id="buy-filter0_d" x="0" y="-13" width="165" height="164" filterUnits="userSpaceOnUse" color-interpolation-filters="sRGB">
      <feFlood flood-opacity="0" result="BackgroundImageFix"/>
      <feColorMatrix in="SourceAlpha" type="matrix" values="0 0 0 0 0 0 0 0 0 0 0 0 0 0 0 0 0 0 127 0"/>
      <feOffset/>
      <feGaussianBlur stdDeviation="8"/>
      <feColorMatrix type="matrix" values="0 0 0 0 0 0 0 0 0 0 0 0 0 0 0 0 0 0 0.13 0"/>
      <feBlend mode="normal" in2="BackgroundImageFix" result="effect1_dropShadow"/>
      <feBlend mode="normal" in="SourceGraphic" in2="effect1_dropShadow" result="shape"/>
    </filter>
  </defs>
</svg>
