<svg width="147" height="92" viewBox="0 0 147 92" fill="none" xmlns="http://www.w3.org/2000/svg">
<path d="M75.2153 87.117L75.2122 87.1198C73.2402 88.9121 70.3011 89.5 67.0829 89.5H52.775C49.5454 89.5 46.6141 88.9074 44.6137 87.1461L44.5825 87.1186L44.5522 87.0901C42.7229 85.368 41.8622 83.1144 41.8622 80.5735C41.8622 78.5402 42.4953 76.6818 43.7702 75.1072L43.7764 75.0996C44.1738 74.6127 44.6112 74.1773 45.0847 73.7921L40.1092 69.4725L35.1646 73.6828C35.7009 74.0734 36.1834 74.5226 36.5977 75.0391C37.89 76.5991 38.4493 78.5119 38.4493 80.5735C38.4493 83.1144 37.5887 85.368 35.7593 87.0901L35.7434 87.1051L35.7272 87.1198C33.7553 88.9121 30.8161 89.5 27.5979 89.5H13.4128C10.1832 89.5 7.2519 88.9074 5.25153 87.1461L5.22032 87.1186L5.19003 87.0901C3.37236 85.379 2.5 83.1526 2.5 80.6353C2.5 78.2988 3.29741 76.2146 4.93078 74.563C6.46347 72.9745 8.53084 72.1732 10.8399 71.911L26.7458 57.8005L12.988 45.9633C10.767 45.6653 8.78459 44.8584 7.2796 43.344L7.24814 43.3123L7.21784 43.2796C5.65636 41.5919 4.89489 39.5106 4.89489 37.1944C4.89489 34.7008 5.78063 32.5034 7.61549 30.8349C9.61767 29.01 12.5635 28.3915 15.8077 28.3915H27.5979C30.8147 28.3915 33.755 28.9993 35.728 30.8338C37.5802 32.4791 38.5108 34.6468 38.5108 37.1326C38.5108 39.4061 37.758 41.3733 36.3929 43.0003L40.1577 46.1472L43.9165 42.8918C42.5877 41.3346 41.8008 39.4979 41.8008 37.3798C41.8008 34.8173 42.6503 32.5363 44.5214 30.8349L75.2153 87.117ZM75.2153 87.117C77.0709 85.4247 77.9957 83.2176 77.9957 80.6971C77.9957 78.3376 77.2101 76.2267 75.5651 74.5631C74.0282 72.9703 71.9537 72.1689 69.637 71.9088L53.3483 57.8367M75.2153 87.117L53.3483 57.8367M53.3483 57.8367L67.1376 45.9651C69.3829 45.6698 71.3918 44.8639 72.8794 43.3115C74.4816 41.6411 75.2938 39.5754 75.2938 37.2562C75.2938 34.7258 74.3895 32.503 72.5111 30.8339C70.5381 28.9993 67.5978 28.3915 64.381 28.3915H52.7136C49.4702 28.3915 46.5251 29.0097 44.5229 30.8335L53.3483 57.8367ZM142 89.5H144.5V87V80.9442C144.5 77.6912 143.925 74.725 142.156 72.7413C140.509 70.8475 138.266 69.9785 135.736 69.9785C133.892 69.9785 132.167 70.7057 130.593 71.8323H110.618C120.394 63.4138 127.184 57.3853 130.955 53.7696C136.483 48.4956 140.265 44.1092 141.914 40.6988C143.562 37.335 144.377 33.7039 144.377 29.841C144.377 22.2643 141.549 15.7645 135.988 10.4827C130.385 5.1192 123.229 2.5 114.735 2.5C109.241 2.5 104.102 3.69763 99.3566 6.10781L99.3481 6.11214C94.6526 8.51921 90.9739 11.7806 88.4142 15.9203L88.409 15.9289L88.4037 15.9374C86.0708 19.779 84.6632 23.3463 84.6632 26.5041C84.6632 28.8532 85.5681 30.9175 87.2321 32.5919L87.2465 32.6064L87.2612 32.6207C88.9814 34.2959 91.0955 35.1835 93.4881 35.1835C95.3867 35.1835 97.1662 34.7006 98.6591 33.5813C100.243 32.4253 101.271 30.6648 101.937 28.6616C102.789 26.1663 103.843 24.5129 104.977 23.4886C107.447 21.3133 110.577 20.1677 114.551 20.1677C118.555 20.1677 121.469 21.2295 123.566 23.1119L123.581 23.1254L123.596 23.1387C125.847 25.0954 126.789 27.1607 126.789 29.4084C126.789 31.0529 125.997 33.1068 123.837 35.6194C119.287 40.8328 105.78 52.7979 83.0487 71.6672L82.1454 72.4169V73.5908V87V89.5H84.6454H142Z" stroke="white" stroke-width="5"/>
</svg>
