<svg width="130" height="82" viewBox="0 0 130 82" fill="none" xmlns="http://www.w3.org/2000/svg">
<path d="M65.5471 75.773L65.5501 75.7702C67.2212 74.2469 68.0538 72.2551 68.0538 69.9963C68.0538 67.8868 67.3488 65.9825 65.8651 64.482C64.4969 63.0655 62.6719 62.3544 60.6696 62.112L47.0705 50.3681L58.5251 40.5103C60.4665 40.2383 62.2346 39.5233 63.5596 38.1417C65.001 36.6401 65.733 34.7776 65.733 32.6964C65.733 30.4334 64.9208 28.4261 63.227 26.9202C61.4334 25.255 58.7968 24.7314 56.0066 24.7314H45.9846C43.1678 24.7314 40.5281 25.2655 38.7107 26.9211C37.0185 28.4594 36.2582 30.5192 36.2582 32.8025C36.2582 34.5984 36.885 36.1615 37.9373 37.4933L35.1954 39.867L32.4578 37.5796C33.5388 36.1794 34.1374 34.507 34.1374 32.5903C34.1374 30.3602 33.2988 28.4022 31.6312 26.92C29.8376 25.255 27.2011 24.7314 24.411 24.7314H14.2835C11.4667 24.7314 8.82703 25.2655 7.00963 26.9211C5.35363 28.4265 4.55714 30.4114 4.55714 32.6433C4.55714 34.7152 5.24086 36.5899 6.6466 38.1086L6.67691 38.1414L6.70836 38.173C8.04562 39.5182 9.78844 40.2339 11.7105 40.5084L23.1424 50.3405L9.86537 62.1143C7.87046 62.3588 6.05264 63.0699 4.68875 64.482C3.21685 65.9705 2.5 67.851 2.5 69.9433C2.5 72.193 3.2831 74.2012 4.92193 75.7433L4.95221 75.7718L4.98342 75.7993C6.79901 77.3973 9.4242 77.9083 12.2264 77.9083H24.411C27.2017 77.9083 29.8376 77.402 31.6306 75.773L31.6468 75.7583L31.6627 75.7433C33.3132 74.1902 34.0846 72.1577 34.0846 69.8902C34.0846 68.0554 33.5857 66.329 32.4146 64.9147C32.1316 64.5623 31.8148 64.2456 31.4702 63.9609L35.1556 60.8241L38.8911 64.0658C38.587 64.3405 38.3011 64.6404 38.035 64.9662L38.0288 64.9739C36.8807 66.3912 36.311 68.0663 36.311 69.8902C36.311 72.1577 37.0824 74.1902 38.7329 75.7433L38.7632 75.7718L38.7944 75.7993C40.61 77.3973 43.2352 77.9083 46.0374 77.9083H58.3275C61.1182 77.9083 63.7541 77.402 65.5471 75.773ZM119.296 38.8489C120.854 37.1888 122.12 35.4044 123.072 33.4908L123.075 33.4843L123.078 33.4778C124.446 30.685 125.126 27.69 125.126 24.5254C125.126 18.4347 122.802 13.1869 118.277 8.91296C113.679 4.56903 107.656 2.5 100.473 2.5C93.0015 2.5 86.5735 4.28083 81.3516 8.00438C77.8757 10.4753 75.4495 13.4972 75.4495 17.1503C75.4495 19.3376 76.2179 21.2891 77.7589 22.8392C79.2762 24.3654 81.1774 25.1684 83.3297 25.1684C84.6035 25.1684 85.8294 24.8955 86.9555 24.3063C87.879 23.8351 88.7822 22.974 89.6052 22.0741L89.6112 22.0676L89.6171 22.061C91.7643 19.6796 94.9802 18.3239 99.6813 18.3239C103.438 18.3239 105.773 19.1222 107.138 20.2783L107.156 20.2935L107.174 20.3085C108.726 21.5733 109.313 22.8795 109.313 24.3132C109.313 25.2284 109.043 26.1833 108.386 27.2143L108.382 27.2214L108.377 27.2285C107.761 28.2097 106.95 28.9776 105.908 29.5538C104.758 30.1904 103.675 30.5302 102.649 30.6334L102.617 30.6366C102.619 30.6363 102.62 30.6361 102.62 30.636C102.62 30.635 102.544 30.6398 102.34 30.6448C102.088 30.651 101.728 30.6564 101.254 30.6608C100.307 30.6695 98.9405 30.6739 97.1495 30.6739C94.9259 30.6739 92.9323 31.4293 91.3677 33.0031C89.8267 34.5532 89.0582 36.5046 89.0582 38.692C89.0582 40.7638 89.742 42.6385 91.1477 44.1573L91.178 44.19L91.2095 44.2217C92.7379 45.7591 94.7703 46.4659 96.9929 46.599C100.718 46.8445 103.038 47.2712 104.224 47.7458C106.61 48.7321 108.415 50.0913 109.732 51.7902L109.746 51.8088L109.761 51.827C111.124 53.5187 111.687 55.1206 111.687 56.6787C111.687 58.7088 110.83 60.2651 108.705 61.524C106.485 62.8039 102.492 63.6231 96.3055 63.6231C92.7094 63.6231 90.0374 63.38 88.2011 62.9529C87.1923 62.6886 86.0071 62.1351 84.6382 61.1962L84.6119 61.1782L84.5851 61.1608C83.2002 60.262 81.6787 59.6968 80.0593 59.6968C77.8798 59.6968 75.9701 60.5385 74.4599 62.1083L74.459 62.1093C72.9641 63.6649 72.2319 65.6067 72.2319 67.7679C72.2319 70.9713 74.1392 73.427 76.9325 75.1884L76.9403 75.1933L76.9481 75.1982C81.7501 78.1768 88.598 79.5 97.1495 79.5C103.767 79.5 109.336 78.6499 113.728 76.8125L113.736 76.8089L113.745 76.8052C118.123 74.9346 121.565 72.1518 123.942 68.4247C126.305 64.739 127.5 60.7 127.5 56.3604C127.5 52.4072 126.621 48.7682 124.818 45.5014C123.463 43.0187 121.608 40.8049 119.296 38.8489Z" stroke="white" stroke-width="5"/>
</svg>
