<svg width="14" height="13" viewBox="0 0 14 13" xmlns="http://www.w3.org/2000/svg">
  <path d="M6.00016 0.952381C6.00016 0.666666 6.0954 0.47619 6.28588 0.285714C6.66683 -0.0952384 7.23826 -0.0952384 7.61921 0.285714L12.9525 5.42857C13.143 5.71429 13.3335 6 13.3335 6.38095C13.3335 6.66667 13.143 6.95238 12.9525 7.2381L7.61921 12.6667C7.23826 13.0476 6.66683 13.0476 6.28588 12.6667C5.90492 12.2857 5.90492 11.7143 6.28588 11.3333L11.143 6.38095L6.28588 1.61905C6.0954 1.42857 6.00016 1.23809 6.00016 0.952381Z"/>
  <path d="M0.000161129 6.38085C0.000161154 5.80942 0.381113 5.42847 0.952542 5.42847L12.3811 5.42847C12.9525 5.42847 13.3335 5.80942 13.3335 6.38085C13.3335 6.95228 12.9525 7.33323 12.3811 7.33323L0.952542 7.33323C0.381113 7.33323 0.000161104 6.95228 0.000161129 6.38085Z"/>
</svg>
