<svg width="48" height="48" fill="none" stroke="none" xmlns="http://www.w3.org/2000/svg"><circle cx="24" cy="24" r="23" stroke="currentColor" fill="none" stroke-width="2"/><g clip-path="url(#arrow-up-circle-clip0)" fill="currentColor" stroke="none"><path d="M17.143 24.8c-.343 0-.572-.114-.8-.343a1.105 1.105 0 010-1.6l6.171-6.4c.343-.228.686-.457 1.143-.457.343 0 .686.229 1.029.457l6.514 6.4a1.105 1.105 0 010 1.6 1.105 1.105 0 01-1.6 0l-5.943-5.828-5.714 5.828c-.229.229-.457.343-.8.343z"/><path d="M23.657 32c-.686 0-1.143-.457-1.143-1.143V17.143c0-.686.457-1.143 1.143-1.143.686 0 1.143.457 1.143 1.143v13.714c0 .686-.457 1.143-1.143 1.143z"/></g><defs><clipPath id="arrow-up-circle-clip0"><path fill="#fff" stroke="none" transform="translate(16 16)" d="M0 0h15.543v16H0z"/></clipPath></defs></svg>
