<svg width="112" height="112" fill="currentColor" xmlns="http://www.w3.org/2000/svg"><path d="M100.333 112H11.667C5.227 112 0 106.773 0 100.333V21.047A11.69 11.69 0 0111.713 9.333h88.62c6.44 0 11.667 5.227 11.667 11.714v79.286c0 6.44-5.227 11.667-11.667 11.667zm-88.62-93.333a2.39 2.39 0 00-2.38 2.38v79.286c0 1.26 1.074 2.334 2.334 2.334h88.666a2.341 2.341 0 002.334-2.334V21c0-1.26-1.074-2.333-2.334-2.333h-88.62zm95.62 18.666H4.667A4.68 4.68 0 010 32.667 4.68 4.68 0 014.667 28h102.666A4.68 4.68 0 01112 32.667a4.68 4.68 0 01-4.667 4.666zm-84-14a4.68 4.68 0 01-4.666-4.666v-14A4.68 4.68 0 0123.333 0 4.68 4.68 0 0128 4.667v14a4.68 4.68 0 01-4.667 4.666zm65.334 0A4.68 4.68 0 0184 18.667v-14A4.68 4.68 0 0188.667 0a4.68 4.68 0 014.666 4.667v14a4.68 4.68 0 01-4.666 4.666z"/><path d="M28 93.333A4.667 4.667 0 1028 84a4.667 4.667 0 000 9.333zM28 74.667a4.667 4.667 0 100-9.334 4.667 4.667 0 000 9.334zM42 93.333A4.667 4.667 0 1042 84a4.667 4.667 0 000 9.333zM42 74.667a4.667 4.667 0 100-9.334 4.667 4.667 0 000 9.334zM42 56a4.667 4.667 0 100-9.333A4.667 4.667 0 0042 56zM70 93.333A4.667 4.667 0 1070 84a4.667 4.667 0 000 9.333zM70 74.667a4.667 4.667 0 100-9.334 4.667 4.667 0 000 9.334zM70 56a4.667 4.667 0 100-9.333A4.667 4.667 0 0070 56z"/><path d="M84 74.667a4.667 4.667 0 100-9.334 4.667 4.667 0 000 9.334zM84 56a4.667 4.667 0 100-9.333A4.667 4.667 0 0084 56z"/><path d="M56 93.333A4.667 4.667 0 1056 84a4.667 4.667 0 000 9.333zM56 74.667a4.667 4.667 0 100-9.334 4.667 4.667 0 000 9.334zM56 56a4.667 4.667 0 100-9.333A4.667 4.667 0 0056 56z"/></svg>
