<svg width="38" height="38" fill="currentColor" xmlns="http://www.w3.org/2000/svg"><path fill-rule="evenodd" clip-rule="evenodd" d="M23.282 13.291l-5.991 7.868-2.586-3.303a1.581 1.581 0 00-2.223-.27 1.58 1.58 0 00-.27 2.22l3.848 4.92c.301.383.76.607 1.248.607h.011c.49-.002.952-.233 1.248-.624l7.234-9.5a1.582 1.582 0 10-2.52-1.917zM19 31.667c-6.984 0-12.667-5.683-12.667-12.667S12.016 6.333 19 6.333 31.666 12.016 31.666 19 25.984 31.667 19 31.667zm0-28.5c-8.745 0-15.834 7.09-15.834 15.833S10.256 34.833 19 34.833c8.745 0 15.833-7.09 15.833-15.833S27.745 3.167 19 3.167z" fill="#231F20"/><mask id="a" maskUnits="userSpaceOnUse" x="3" y="3" width="32" height="32"><path fill-rule="evenodd" clip-rule="evenodd" d="M23.282 13.291l-5.991 7.868-2.586-3.303a1.581 1.581 0 00-2.223-.27 1.58 1.58 0 00-.27 2.22l3.848 4.92c.301.383.76.607 1.248.607h.011c.49-.002.952-.233 1.248-.624l7.234-9.5a1.582 1.582 0 10-2.52-1.917zM19 31.667c-6.984 0-12.667-5.683-12.667-12.667S12.016 6.333 19 6.333 31.666 12.016 31.666 19 25.984 31.667 19 31.667zm0-28.5c-8.745 0-15.834 7.09-15.834 15.833S10.256 34.833 19 34.833c8.745 0 15.833-7.09 15.833-15.833S27.745 3.167 19 3.167z" fill="#fff"/></mask><g mask="url(#a)"><path d="M0 0h38v38H0z"/></g></svg>
