<svg width="112" height="112" fill="none" xmlns="http://www.w3.org/2000/svg"><path d="M73 24H57l-7 1-9-1-4-3.5-2-4-1-4L35 8l4.5-4.5H44L50 5l3 1.5L57 8l6.5-4.5h8L77 8l1.5 7-5.5 9zM4 26h105v22H4zM12 48h90v62H12z" fill="#fff"/><path d="M109.511 22.4H77.753a13.637 13.637 0 003.136-8.711C80.889 6.135 74.754 0 67.2 0 62.57 0 58.476 2.315 56 5.849 53.524 2.315 49.43 0 44.8 0c-7.554 0-13.689 6.135-13.689 13.689 0 3.31 1.182 6.347 3.136 8.711H2.49A2.496 2.496 0 000 24.889v24.889a2.496 2.496 0 002.489 2.489h4.978v57.244A2.496 2.496 0 009.956 112h92.088a2.496 2.496 0 002.489-2.489V52.267h4.978a2.496 2.496 0 002.489-2.49V24.89a2.496 2.496 0 00-2.489-2.489zm-65.955 84.622H12.444V52.267h31.112v54.755zm0-59.733H4.978V27.378h38.578v19.91zm-7.467-33.6c0-4.804 3.907-8.711 8.711-8.711s8.711 3.907 8.711 8.71V22.4H44.8c-4.804 0-8.711-3.908-8.711-8.711zm27.378 93.333H48.533V27.378h14.934v79.644zM58.489 22.4v-8.711c0-4.804 3.907-8.711 8.711-8.711s8.711 3.907 8.711 8.71c0 4.804-3.907 8.712-8.711 8.712h-8.711zm41.067 84.622H68.445V52.267h31.11v54.755zm7.466-59.733H68.444V27.378h38.578v19.91z" fill="currentColor"/><path d="M9.804 78.536l29-29m-25.9 59.798l33-33M8.507 89.302l37-37m-22.236 57.965l23-23M9.874 99.235l36-36M8.437 68.603l19-19m7.2 60.596l12-12m19.377-19.663l29-29m-25.899 59.798l33-33M64.718 89.302l37-37m-22.236 57.965l23-23M66.085 99.235l35.999-36m-37.436 5.368l19-19m7.2 60.596l12.001-12" stroke="currentColor" stroke-width="3"/></svg>
