<svg width="129" height="126" fill="none" stroke="currentColor" xmlns="http://www.w3.org/2000/svg"><circle cx="22" cy="55" r="19.5" stroke-width="5"/><path d="M34.5 55c0 6.904-5.596 12.5-12.5 12.5a12.46 12.46 0 01-4.72-.921c-.047-.02-.06-.037-.064-.043a.155.155 0 01-.026-.072.42.42 0 01.135-.343L33.12 50.325a.42.42 0 01.343-.135.155.155 0 01.072.026c.006.004.024.017.043.064A12.46 12.46 0 0134.5 55zm-25 0c0-6.904 5.596-12.5 12.5-12.5 1.89 0 3.68.419 5.283 1.167.043.02.057.039.062.047.008.011.02.035.026.077a.425.425 0 01-.136.339L11.13 60.235a.425.425 0 01-.339.136.168.168 0 01-.077-.026c-.008-.005-.026-.02-.047-.062A12.447 12.447 0 019.5 55z" stroke-width="3"/><circle cx="88.615" cy="39.615" r="26.5" transform="rotate(30 88.615 39.615)" stroke-width="5"/><path stroke-width="5" d="M71.334 62.546l6.062 3.5-4.5 7.794-6.062-3.5zM61.62 71.372a2.5 2.5 0 013.414-.915l8.66 5a2.5 2.5 0 01.915 3.415l-16 27.713a7.5 7.5 0 01-12.99-7.5l16-27.713z"/><circle cx="89.115" cy="28.971" r="7.389" stroke-width="3"/><path d="M75.413 46.185c1.964-5.51 7.344-9.492 13.701-9.492 6.411 0 11.829 4.05 13.751 9.632.402 1.17.23 2.435-.462 3.398-2.069 2.877-6.35 6.42-13.237 6.18-6.786-.236-11.064-3.525-13.196-6.171-.785-.975-.996-2.315-.557-3.547zM74.565 80.071l-23.222 6.222M65.565 95.659l-20.49 5.49M70.065 87.865l-20.49 5.49M70.869 74.473l-13.661 3.66M59.699 103.819l-13.661 3.661" stroke-width="3"/></svg>
