<svg width="24" height="25" xmlns="http://www.w3.org/2000/svg"><g><path fill-rule="evenodd" clip-rule="evenodd" d="M19 11.97h-6v-6a1 1 0 10-2 0v6H5a1 1 0 100 2h6v6a1 1 0 102 0v-6h6a1 1 0 100-2z" fill="#9067A9" fill-opacity=".8"/><mask id="a" maskUnits="userSpaceOnUse" x="4" y="4" width="16" height="17"><path fill-rule="evenodd" clip-rule="evenodd" d="M19 11.97h-6v-6a1 1 0 10-2 0v6H5a1 1 0 100 2h6v6a1 1 0 102 0v-6h6a1 1 0 100-2z" fill="#fff"/></mask><g mask="url(#a)"><path d="M0 .97h24v24H0z"/></g></g></svg>
