<svg width="24" height="24" fill="currentColor" xmlns="http://www.w3.org/2000/svg"><g clip-path="url(#clip0)"><path d="M19.495 12.894c-.478 3.95-3.299 4.197-3.822 4.37-.222.073-2.278.596-4.867.423L8 20.794l-.005-3.58-.02-.005c-3.767-1.07-3.64-5.09-3.6-7.195.045-2.106.43-3.837 1.578-4.996 2.062-1.913 6.318-1.627 6.318-1.627 3.59.015 5.31 1.124 5.71 1.494 1.332 1.16 2.007 3.935 1.514 8.009zm-.527-9c-.474-.444-2.377-1.86-6.623-1.879 0 0-5.006-.31-7.447 1.982-1.361 1.391-1.84 3.428-1.889 5.948-.049 2.525-.113 7.254 4.34 8.536h.005v1.958s-.03.794.483.952c.617.197.977-.404 1.568-1.055.326-.355.77-.878 1.105-1.278 3.048.262 5.39-.34 5.652-.424.616-.207 4.093-.66 4.66-5.39.577-4.877-.291-7.96-1.854-9.35z"/><path d="M16.25 13.48s-.571-.488-.847-.695c-.262-.197-.68-.463-.913-.597-.419-.236-.848-.088-1.025.148l-.37.474c-.188.242-.479.197-.553.182-.542-.138-1.119-.473-1.71-1.045-.598-.577-.962-1.179-1.09-1.805l-.01-.04a.727.727 0 01.113-.552l.02-.015c.246-.231.71-.513.769-.779.182-.463-.607-1.435-.715-1.603 0 0-.572-.754-.774-.902-.217-.183-.558-.286-.903-.074l-.02.015c-.98.65-1.336 1.035-1.237 1.603l.049.231c.498 1.573 1.465 3.25 2.9 4.744 1.42 1.475 2.959 2.358 4.473 2.97.394.132.803.019 1.223-.341l.004-.005c.321-.3.578-.621.765-.967v-.005c.187-.364.123-.705-.148-.941zM13.893 10.038a.117.117 0 01-.113-.108c-.02-.41-.128-.72-.325-.927-.198-.207-.489-.32-.873-.345-.065-.005-.109-.06-.109-.124.005-.064.054-.113.118-.108.444.024.785.162 1.021.414.237.252.37.612.39 1.08a.116.116 0 01-.109.123M15.013 10.423a.116.116 0 01-.113-.118c.02-.784-.212-1.445-.68-1.968a2.426 2.426 0 00-.844-.612 3.303 3.303 0 00-1.13-.266.112.112 0 01-.103-.123.116.116 0 01.123-.109c.903.07 1.618.39 2.126.957.508.567.76 1.287.74 2.13a.122.122 0 01-.119.109z"/><path d="M16.162 10.882a.112.112 0 01-.113-.114c-.005-.69-.109-1.316-.311-1.859a3.985 3.985 0 00-.897-1.41 4.116 4.116 0 00-1.337-.898 4.277 4.277 0 00-1.632-.306.116.116 0 01-.114-.118c0-.064.05-.113.114-.113 1.242.01 2.293.434 3.126 1.267.42.42.74.922.952 1.494.212.567.32 1.223.326 1.943 0 .06-.05.114-.114.114z"/></g><defs><clipPath id="clip0"><path transform="translate(3 2)" d="M0 0h18v19.43H0z"/></clipPath></defs></svg>
