<svg width="24" height="24" fill="currentColor" xmlns="http://www.w3.org/2000/svg"><path d="M12.159 3.25c-4.745 0-8.591 3.816-8.591 8.525 0 1.61.45 3.117 1.233 4.402L3.25 20.75l4.756-1.511a8.609 8.609 0 004.153 1.06c4.745 0 8.591-3.817 8.591-8.524 0-4.709-3.846-8.525-8.591-8.525zm4.272 11.762c-.203.501-1.117.958-1.52.98-.403.02-.414.312-2.61-.643-2.197-.954-3.518-3.275-3.623-3.424-.104-.149-.85-1.213-.81-2.283.04-1.071.627-1.576.836-1.787a.841.841 0 01.595-.25c.173-.003.285-.005.413 0 .128.004.32-.027.486.415.166.442.564 1.53.615 1.64.051.111.083.24.004.382-.078.143-.119.232-.232.355-.115.123-.242.275-.344.369-.114.104-.233.217-.113.44.12.222.533.951 1.163 1.552.81.773 1.508 1.029 1.723 1.145.215.118.344.105.477-.036.133-.14.572-.615.727-.827.154-.212.299-.17.497-.09.199.08 1.256.646 1.472.763.215.117.359.177.41.27.052.092.036.528-.166 1.03z"/></svg>
